<svg width="587" height="377" viewBox="0 0 587 377" fill="none" xmlns="http://www.w3.org/2000/svg">
<path d="M526.469 373.615C543.534 370.638 582.988 364.607 581.65 322.193C580.663 290.917 554.49 288.902 540.703 259.649C529.842 236.599 548.921 211.805 568.967 193.126C589.013 174.447 590.761 137.216 581.943 120.276C570.273 97.8591 554.007 83.9262 523.898 76.4519C493.787 68.9775 461.454 71.5099 430.01 73.2607C398.567 75.0114 365.639 75.6907 337.071 65.0163C310.338 55.027 290.527 36.2401 266.32 22.7317C208.862 -9.33527 125.264 -7.25954 70.3907 27.5917C15.5171 62.4429 -6.12734 127.209 19.6714 179.381C26.2236 192.631 35.642 205.724 34.9276 219.967C33.9527 239.345 14.75 254.766 6.67838 273.043C-12.7322 317.014 20.4736 374.122 54.8359 374.628L526.469 373.615Z" fill="white" fill-opacity="0.11"/>
<path d="M570.545 370.579H15.9124C14.2348 370.579 12.8734 371.94 12.8734 373.618C12.8734 375.296 14.2348 376.657 15.9124 376.657H570.545C572.223 376.657 573.584 375.296 573.584 373.618C573.584 371.938 572.226 370.579 570.545 370.579Z" fill="#F37856"/>
<path d="M392.249 188.05H176.072C172.828 188.05 170.199 185.421 170.199 182.177V65.8684H398.125V182.177C398.122 185.421 395.493 188.05 392.249 188.05Z" fill="#C4E4EB"/>
<path d="M398.122 65.8682H170.198V53.0508C170.198 50.6999 172.104 48.7939 173.217 48.7939H392.627C396.219 48.7939 398.125 50.6999 398.125 53.0508V65.8682H398.122Z" fill="#F37856"/>
<path d="M218.031 96.6326H202.963V173.991H218.031V96.6326Z" fill="#6DABE1"/>
<path d="M248.491 108.097H233.422V173.991H248.491V108.097Z" fill="#ADBAE7"/>
<path d="M281.185 115.979H266.116V173.991H281.185V115.979Z" fill="#ADD6D8"/>
<path d="M311.311 114.74H296.242V173.991H311.311V114.74Z" fill="#FF8AAB"/>
<path d="M371.513 90.6804H356.444V173.991H371.513V90.6804Z" fill="#ADBAE7"/>
<path d="M341.434 102.339H326.365V173.991H341.434V102.339Z" fill="#6DABE1"/>
<path d="M181.013 59.8108C182.383 59.8108 183.493 58.7006 183.493 57.3311C183.493 55.9615 182.383 54.8513 181.013 54.8513C179.644 54.8513 178.534 55.9615 178.534 57.3311C178.534 58.7006 179.644 59.8108 181.013 59.8108Z" fill="white"/>
<path d="M191.802 59.8108C193.172 59.8108 194.282 58.7006 194.282 57.3311C194.282 55.9615 193.172 54.8513 191.802 54.8513C190.433 54.8513 189.322 55.9615 189.322 57.3311C189.322 58.7006 190.433 59.8108 191.802 59.8108Z" fill="white"/>
<path d="M202.591 59.8108C203.96 59.8108 205.071 58.7006 205.071 57.3311C205.071 55.9615 203.96 54.8513 202.591 54.8513C201.221 54.8513 200.111 55.9615 200.111 57.3311C200.111 58.7006 201.221 59.8108 202.591 59.8108Z" fill="white"/>
<path d="M284.587 103.934C279.861 103.934 274.893 103.381 269.345 102.215C258.071 99.8499 244.337 94.6444 235.24 90.5603C226.94 86.8334 214.632 82.3189 203.648 86.1249L203.566 85.8848C214.638 82.0495 227.005 86.5845 235.346 90.329C244.43 94.4073 258.144 99.6069 269.398 101.967C290.111 106.311 302.768 102.131 324.816 92.2467C329.547 90.127 333.456 88.1245 337.232 86.1922C346.528 81.4347 354.555 77.3242 369.981 74.1331L370.034 74.3819C354.64 77.5672 346.627 81.6689 337.349 86.4176C333.57 88.3528 329.658 90.3554 324.921 92.478C308.717 99.7415 297.571 103.934 284.587 103.934Z" fill="#0A305E"/>
<path d="M386.376 174.45H191.676V80.5828H191.928V174.199H386.376V174.45Z" fill="#0A305E"/>
<path d="M194.367 80.7088H189.237L191.802 75.0671L194.367 80.7088ZM189.63 80.457H193.972L191.799 75.682L189.63 80.457Z" fill="#0A305E"/>
<path d="M370.382 76.8762L369.478 71.8289L375.482 73.36L370.382 76.8762ZM369.797 72.1714L370.561 76.4458L374.879 73.4684L369.797 72.1714Z" fill="#0A305E"/>
<path d="M488.699 39.2117H425.613C422.059 39.2117 419.175 42.0925 419.175 45.6497V75.5853C419.175 79.1395 422.056 82.0233 425.613 82.0233H436.715L427.662 96.1435L448.598 82.0233H488.699C492.253 82.0233 495.137 79.1395 495.137 75.5853V45.6497C495.137 42.0925 492.253 39.2117 488.699 39.2117Z" fill="#F37856"/>
<path d="M489.237 45.4683H444.847V48.5218H489.237V45.4683Z" fill="white"/>
<path d="M489.237 54.3596H444.964V57.4132H489.237V54.3596Z" fill="white"/>
<path d="M489.237 63.0667H425.37V66.1202H489.237V63.0667Z" fill="white"/>
<path d="M489.237 71.7734H425.37V74.827H489.237V71.7734Z" fill="white"/>
<path d="M439.879 45.4683H425.37V57.4162H439.879V45.4683Z" fill="white"/>
<path d="M369.12 283.521H307.853C306.778 283.521 305.909 284.391 305.909 285.465C305.909 286.54 306.778 287.409 307.853 287.409H369.12C370.195 287.409 371.064 286.54 371.064 285.465C371.064 284.391 370.192 283.521 369.12 283.521Z" fill="#B1D1E5"/>
<path d="M364.788 287.412H360.754V370.415H364.788V287.412Z" fill="#D3E6EF"/>
<path d="M316.208 287.412H312.174V370.415H316.208V287.412Z" fill="#D3E6EF"/>
<path d="M360.756 346.379H316.217V350.75H360.756V346.379Z" fill="#D3E6EF"/>
<path d="M360.756 322.196H316.217V326.567H360.756V322.196Z" fill="#D3E6EF"/>
<path d="M457.788 256.947H387.503V370.579H457.788V256.947Z" fill="#F37856"/>
<path d="M454.158 262.811H391.131V279.92H454.158V262.811Z" fill="#C4E4EB"/>
<path d="M422.826 274.109C424.412 274.109 425.698 272.823 425.698 271.237C425.698 269.651 424.412 268.365 422.826 268.365C421.239 268.365 419.953 269.651 419.953 271.237C419.953 272.823 421.239 274.109 422.826 274.109Z" fill="#F37856"/>
<path d="M454.158 285.465H391.131V302.575H454.158V285.465Z" fill="#C4E4EB"/>
<path d="M422.826 296.763C424.412 296.763 425.698 295.478 425.698 293.891C425.698 292.305 424.412 291.019 422.826 291.019C421.239 291.019 419.953 292.305 419.953 293.891C419.953 295.478 421.239 296.763 422.826 296.763Z" fill="#F37856"/>
<path d="M454.158 308.12H391.131V325.229H454.158V308.12Z" fill="#C4E4EB"/>
<path d="M424.85 318.578C425.972 317.457 425.972 315.638 424.85 314.517C423.729 313.395 421.91 313.395 420.789 314.517C419.667 315.638 419.667 317.457 420.789 318.578C421.91 319.7 423.729 319.7 424.85 318.578Z" fill="#F37856"/>
<path d="M454.158 330.774H391.131V347.884H454.158V330.774Z" fill="#C4E4EB"/>
<path d="M422.826 342.072C424.412 342.072 425.698 340.786 425.698 339.2C425.698 337.614 424.412 336.328 422.826 336.328C421.239 336.328 419.953 337.614 419.953 339.2C419.953 340.786 421.239 342.072 422.826 342.072Z" fill="#F37856"/>
<path d="M454.158 353.429H391.131V370.538H454.158V353.429Z" fill="#C4E4EB"/>
<path d="M422.826 364.727C424.412 364.727 425.698 363.441 425.698 361.855C425.698 360.269 424.412 358.983 422.826 358.983C421.239 358.983 419.953 360.269 419.953 361.855C419.953 363.441 421.239 364.727 422.826 364.727Z" fill="#F37856"/>
<path d="M449.448 123.412C449.448 123.412 449.427 132.675 447.87 136.104C445.601 141.095 456.685 142.064 459.82 140.885C462.435 139.898 460.895 129.721 460.895 129.721L454.062 124.542L449.448 123.412Z" fill="#B3502B"/>
<path d="M521.518 362.803C526.542 368.556 546.547 357.226 546.884 354.975L530.788 334.261L517.156 336.056L530.076 357.024L521.518 362.803Z" fill="#FFAB9E"/>
<path d="M454.366 361.767C449.064 368.023 478.159 362.311 478.496 360.06L479.017 337.461L465.386 339.256L464.964 357.58L454.366 361.767Z" fill="#FFAB9E"/>
<path d="M478.613 354.975C479.691 354.012 481.711 365.333 480.592 370.667H473.988L472.778 366.975C466.367 370.975 463.31 370.72 453.339 370.667C448.496 370.641 444.986 370.263 445.832 367.719C446.678 365.175 454.697 361.047 454.36 361.767C451.482 367.933 473.478 359.568 478.613 354.975Z" fill="#65ABE5"/>
<path d="M546.881 354.975C547.958 354.012 549.978 365.333 548.86 370.667H542.255L541.046 366.975C534.634 370.975 531.578 370.72 521.606 370.667C516.764 370.641 513.253 370.263 514.099 367.719C514.946 365.175 522.964 361.047 522.628 361.767C519.75 367.933 541.746 359.568 546.881 354.975Z" fill="#65ABE5"/>
<path d="M428.898 165.746C428.898 165.746 404.033 152.683 401.503 150.657C401.293 150.49 400.578 146.471 400.382 145.174C400.204 143.979 396.16 141.895 395.575 142.77C394.945 143.716 397.668 145.15 397.718 145.335C397.861 145.865 397.724 146.76 397.393 146.57C397.393 146.57 388.853 136.783 387.802 137.605C386.953 138.273 393.821 145.513 392.328 144.945C391.257 144.538 390.574 145.601 390.689 146.008C390.867 146.652 390.703 146.998 389.989 146.927C389.014 146.831 388.209 148.005 388.592 148.745C388.797 149.141 389.561 149.755 388.707 149.867C386.806 150.11 390.071 153.863 392.395 155.139C393.461 155.725 395.66 156.665 398.254 157.195C399.319 157.411 423.054 178.57 434.405 176.886C436.911 176.517 428.898 165.746 428.898 165.746Z" fill="#FFAB9E"/>
<path d="M480.276 281.873L488.86 251.229L496.607 287.453C497.558 292.524 511.029 341.984 517.153 351.338C520.579 351.892 542.279 346.414 545.616 339.537L514.688 285.948C514.688 285.948 510.935 223.975 510.168 214.358C510.168 214.358 467.722 219.63 466.575 222.675L461.832 276.442C461.832 276.442 457.338 342.005 457.15 348.525C457.036 352.474 487.051 351.11 487.285 348.525C488.234 338.199 480.276 281.873 480.276 281.873Z" fill="#744BE3"/>
<path d="M428.898 165.746C428.898 165.746 432.479 175.844 434.408 176.889C435.442 177.448 449.913 171.318 449.913 171.318L458.775 200.688L466.624 222.716C467.746 231.069 500.747 224.171 510.174 214.361L497.514 188.281L495.488 175.115C496.381 170.369 496.885 161.665 495.172 157.242C493.773 153.629 492.078 151.471 486 148.324C481.357 145.92 474.725 143.47 474.725 143.47L459.794 144.213C453.456 147.77 428.898 165.746 428.898 165.746Z" fill="#E62553"/>
<path d="M474.725 143.467C476.245 145.744 467.541 153.728 465.62 153.728C463.342 153.728 458.775 148.783 459.788 144.225L458.503 133.22L470.498 132.675L474.725 143.467Z" fill="#FFAB9E"/>
<path d="M471.315 138.841C470.586 140.507 469.772 144.231 459.794 144.207L459.282 139.921C460.093 140.36 469.792 138.695 470.96 135.779L471.315 138.841Z" fill="#FF7F6A"/>
<path d="M449.176 117.331C448.081 130.863 453.4 140.363 459.818 140.885C470.305 141.734 477.328 133.413 478.423 119.878C479.337 108.604 475.504 105.55 468.012 104.944C457.522 104.095 450.189 104.813 449.176 117.331Z" fill="#FFAB9E"/>
<path d="M451.892 111.745C451.892 111.745 453.907 118.839 467.954 118.259C471.537 118.113 471.3 134.429 469.605 138.367C468.525 140.876 481.278 141.845 482.946 138.282C484.393 135.196 486.665 126.603 480.83 112.744C476.819 103.22 464.613 100.354 453.649 105.152C447.641 107.781 449.094 118.57 449.094 118.57C449.861 115.059 450.358 113.847 451.892 111.745Z" fill="#B3502B"/>
<path d="M460.608 128.284C459.981 128.884 459.513 129.578 458.52 129.426C457.923 129.332 457.332 128.878 456.825 128.486C457.51 127.236 458.213 125.965 458.538 124.569C458.904 122.988 458.555 121.36 458.719 119.758C458.757 119.387 458.192 119.346 458.146 119.711C457.973 121.076 458.207 122.466 457.99 123.822C457.727 125.476 456.802 126.94 455.982 128.366C455.871 128.562 455.897 128.781 456.082 128.925C457.809 130.28 459.987 131.206 461.079 128.612C461.193 128.342 460.822 128.079 460.608 128.284Z" fill="#FF7F6A"/>
<path d="M457.063 118.315C454.53 117.346 451.608 118.031 450.004 120.341C449.837 120.581 450.183 121.172 450.411 121.07C451.483 120.584 452.487 119.922 453.64 119.627C454.82 119.325 455.956 119.84 457.089 119.48C457.496 119.351 457.458 118.467 457.063 118.315Z" fill="#B3502B"/>
<path d="M461.184 118.423C463.764 117.586 467.535 118.444 469.019 120.836C469.171 121.082 468.908 121.658 468.685 121.544C467.64 121.003 466.671 120.288 465.535 119.934C464.373 119.571 462.323 120.001 461.208 119.586C460.813 119.439 460.783 118.552 461.184 118.423Z" fill="#B3502B"/>
<path d="M464.159 131.736C464.089 131.551 463.785 131.469 463.726 131.68C463.331 133.088 462.824 133.846 462.037 134.335C460.789 135.108 459.405 135.424 458.058 134.941C457.786 134.845 457.639 135.249 457.868 135.392C459.282 136.279 461.05 136.376 462.49 135.474C463.65 134.748 464.701 133.123 464.159 131.736Z" fill="#FF7F6A"/>
<path opacity="0.54" d="M495.485 175.115L489.261 192.971L480.036 202.261L466.621 222.716C466.621 222.716 466.987 224.329 468.029 224.903C469.072 225.48 487.197 205.826 490.265 200.009C493.986 192.956 496.606 182.408 496.606 182.408L495.485 175.115Z" fill="#C8254C"/>
<path d="M465.62 153.728L470.055 158.656C473.838 154.264 476.262 148.388 476.245 144.225L473.712 140.934C473.712 140.934 473.712 143.329 472.699 145.493C470.301 150.607 465.62 153.728 465.62 153.728Z" fill="#F0EDD7"/>
<path d="M465.62 153.728L461.691 158.656C457.891 154.015 457.748 148.895 457.762 144.729L459.393 140.832L459.788 144.222C460.798 148.277 465.62 153.728 465.62 153.728Z" fill="#F0EDD7"/>
<path opacity="0.54" d="M477.828 189.759L483.57 162.286L473.706 195.495L461.837 209.284L463.931 214.361L481.219 201.069L477.828 189.759Z" fill="#C8254C"/>
<path d="M477.828 189.759L475.483 196.636L450.739 228.859C450.739 228.859 436.22 230.22 438.012 235.376C438.767 237.545 452.879 236.775 454.29 235.665C457.835 232.881 481.602 208.394 486.623 199.169L489.261 192.971C483.529 193.662 477.828 189.759 477.828 189.759Z" fill="#FFAB9E"/>
<path opacity="0.54" d="M449.91 171.318L445.823 157.801V173.007L449.91 171.318Z" fill="#C8254C"/>
<path opacity="0.5" d="M488.86 251.229L484.934 230.779L482.82 272.797L488.86 251.229Z" fill="#744BE3"/>
<path d="M453.743 120.935C452.709 120.891 451.158 121.772 451.418 122.985C451.453 123.14 451.655 123.178 451.761 123.075C452.375 122.487 452.738 121.705 453.743 121.755C454.7 121.805 455.051 122.619 455.587 123.245C455.663 123.333 455.795 123.277 455.827 123.181C456.222 122.018 454.764 120.976 453.743 120.935Z" fill="#1A1A1A"/>
<path d="M464.018 121.108C462.985 121.064 461.433 121.945 461.694 123.157C461.729 123.313 461.931 123.351 462.036 123.248C462.651 122.66 463.014 121.878 464.018 121.928C464.976 121.978 465.327 122.791 465.863 123.418C465.936 123.506 466.071 123.45 466.103 123.354C466.501 122.191 465.043 121.152 464.018 121.108Z" fill="#1A1A1A"/>
<path d="M426.813 238.257H462.645C463.298 238.257 463.828 237.727 463.828 237.074C463.828 236.421 463.298 235.891 462.645 235.891H426.813V238.257Z" fill="#B1D1E5"/>
<path opacity="0.68" d="M439.177 237.589H441.785C442.087 237.589 442.333 237.343 442.333 237.041C442.333 236.74 442.087 236.494 441.785 236.494H439.177C438.875 236.494 438.629 236.74 438.629 237.041C438.629 237.343 438.872 237.589 439.177 237.589Z" fill="#B1B8D6"/>
<path opacity="0.68" d="M457.542 237.074C457.542 237.375 457.788 237.621 458.09 237.621C458.391 237.621 458.637 237.375 458.637 237.074C458.637 236.772 458.391 236.526 458.09 236.526C457.788 236.526 457.542 236.769 457.542 237.074Z" fill="#B1B8D6"/>
<path d="M377.16 205.303L385.138 237.431C385.258 237.917 385.694 238.26 386.195 238.26H432.554C433.263 238.26 433.781 237.595 433.611 236.907L433.565 236.722L425.633 204.776C425.513 204.29 425.077 203.95 424.576 203.95H378.217C377.897 203.95 377.613 204.085 377.417 204.298C377.18 204.553 377.066 204.925 377.16 205.303Z" fill="#B1D1E5"/>
<path d="M377.151 204.808C377.312 204.714 377.5 204.658 377.704 204.658H424.064C424.565 204.658 425.001 204.998 425.121 205.487L433.099 237.615C433.14 237.785 433.143 237.952 433.108 238.107C433.506 237.873 433.735 237.396 433.612 236.904L425.634 204.776C425.514 204.29 425.077 203.95 424.577 203.95H378.217C377.681 203.95 377.257 204.328 377.151 204.808Z" fill="#CEE4EF"/>
<path d="M402.446 223.068C403.146 224.42 404.7 225.003 405.918 224.373C407.136 223.744 407.555 222.137 406.855 220.784C406.155 219.432 404.601 218.849 403.383 219.478C402.165 220.111 401.746 221.718 402.446 223.068Z" fill="white"/>
<path opacity="0.4" d="M377.16 205.302L385.137 237.431C385.258 237.917 385.694 238.259 386.194 238.259H432.554C432.909 238.259 433.216 238.092 433.412 237.841L377.417 204.298C377.18 204.553 377.066 204.925 377.16 205.302Z" fill="#B1D1E5"/>
<path d="M499.959 238.16H71.3568V242.464H499.959V238.16Z" fill="#D3E6EF"/>
<path d="M480.384 370.579H475.322L456.078 242.463H461.143L480.384 370.579Z" fill="#D3E6EF"/>
<path d="M94.4006 370.579H99.4626L118.706 242.463H113.641L94.4006 370.579Z" fill="#D3E6EF"/>
<path d="M243.183 256.947H172.898V370.579H243.183V256.947Z" fill="#F37856"/>
<path d="M239.555 262.811H176.528V309.651H239.555V262.811Z" fill="#C4E4EB"/>
<path d="M239.555 316.915H176.528V363.755H239.555V316.915Z" fill="#C4E4EB"/>
<path d="M208.042 275.321C209.628 275.321 210.914 274.035 210.914 272.449C210.914 270.863 209.628 269.577 208.042 269.577C206.456 269.577 205.17 270.863 205.17 272.449C205.17 274.035 206.456 275.321 208.042 275.321Z" fill="#F37856"/>
<path d="M210.89 326.72C211.143 325.155 210.079 323.68 208.513 323.426C206.947 323.173 205.472 324.237 205.219 325.803C204.966 327.369 206.03 328.844 207.596 329.097C209.162 329.35 210.636 328.286 210.89 326.72Z" fill="#F37856"/>
<path d="M245.578 219.762L235.337 238.16L261.692 238.256V221.7L245.578 219.762Z" fill="#B1D1E5"/>
<path d="M251.849 238.256C250.856 238.256 249.999 237.586 249.761 236.623L241.783 204.497C241.608 203.789 241.798 203.048 242.296 202.515C242.7 202.079 243.274 201.827 243.874 201.827H290.234C291.223 201.827 292.084 202.498 292.321 203.458L300.296 235.583C300.457 236.233 300.314 236.904 299.904 237.431C299.494 237.955 298.876 238.256 298.212 238.256H251.849Z" fill="#CEE4EF"/>
<path d="M242.817 204.24L250.795 236.368C250.915 236.854 251.351 237.197 251.852 237.197H298.215C298.923 237.197 299.441 236.532 299.272 235.844L299.225 235.66L291.294 203.713C291.174 203.227 290.737 202.887 290.237 202.887H272.463C271.824 202.887 271.227 203.209 270.879 203.745C270.217 204.758 268.786 204.899 267.939 204.029L267.383 203.458C267.026 203.092 266.537 202.887 266.028 202.887H243.874C243.555 202.887 243.271 203.022 243.075 203.236C242.834 203.493 242.723 203.862 242.817 204.24Z" fill="#E2F1F7"/>
<path d="M269.357 203.965C269.654 203.965 269.895 203.723 269.895 203.426C269.895 203.128 269.654 202.887 269.357 202.887C269.059 202.887 268.818 203.128 268.818 203.426C268.818 203.723 269.059 203.965 269.357 203.965Z" fill="#E2F1F7"/>
<path d="M289.317 211.234H248.605L248.233 209.621H288.946L289.317 211.234Z" fill="#EFF7F9"/>
<path d="M290.439 215.426H249.726L249.355 213.81H290.067L290.439 215.426Z" fill="#EFF7F9"/>
<path d="M291.56 219.616H250.851L250.479 218H291.188L291.56 219.616Z" fill="#EFF7F9"/>
<path d="M292.685 223.806H274.975L274.603 222.189H292.313L292.685 223.806Z" fill="#EFF7F9"/>
<path d="M274.164 232.088H254.331L251.814 222.189H271.649L274.164 232.088Z" fill="#EFF7F9"/>
<path d="M293.806 227.995H276.096L275.724 226.379H293.434L293.806 227.995Z" fill="#EFF7F9"/>
<path d="M153.49 362.584C152.027 364.894 140.509 362.774 140.207 360.772L135.629 340.884H149.737L153.49 362.584Z" fill="#A36D4F"/>
<path d="M139.932 359.331C138.972 358.473 136.428 366.806 139.581 370.579H165.049C165.049 370.579 168.483 369.361 168.527 366.978C168.615 362.323 154.351 358.86 152.123 359.237C148.909 359.782 144.312 363.248 139.932 359.331Z" fill="#1A1A1A"/>
<path d="M190.751 360.704C189.287 363.014 178.469 362.707 178.168 360.704L170.863 342.093L184.085 342.479L190.751 360.704Z" fill="#A36D4F"/>
<path d="M177.14 358.157C176.18 357.299 174.121 364.791 178.536 370.576H202.072C202.072 370.576 206.156 369.358 206.188 366.975C206.276 360.44 191.465 358.374 189.237 358.754C187.012 359.132 181.71 362.244 177.14 358.157Z" fill="#1A1A1A"/>
<path d="M151.854 292.284L135.819 259.807C135.819 259.807 143.088 288.071 143.826 292.442C145.05 299.674 150.328 326.93 153.49 344.248C151.906 346.95 139.288 349.904 134.765 347.155L122.802 295.818L106.636 260.533C99.454 250.45 99.6033 241.38 100.338 229.743C100.338 229.743 149.248 227.62 150.44 230.782L170.866 288.648L185.505 340.881C186.436 344.874 170.676 348.507 169.777 345.969C163.608 328.573 151.854 292.284 151.854 292.284Z" fill="#F76969"/>
<path d="M172.166 157.253L192.429 136.42L200.263 140.598C200.263 140.598 181.661 169.236 177.439 171.189C173.214 173.142 149.532 174.682 149.532 174.682L148.566 208.523L150.44 230.791C149.275 239.46 101.744 238.895 100.426 234.167C97.8732 224.994 98.6139 217.133 98.5817 214.138C95.3758 213.825 89.0433 211.419 89.2892 204.858C89.8162 190.723 93.4933 162.421 103.041 156.691C107.745 153.986 118.259 151.588 118.259 151.588L135.383 151.474C141.475 152.85 147.983 155.134 152.073 157.204C155.25 158.805 172.166 157.253 172.166 157.253Z" fill="#3DC8F9"/>
<path opacity="0.67" d="M98.5785 214.132L125.346 217.891C125.346 217.891 137.795 218.41 137.493 220.708C137.186 223.003 131.702 222.757 122.928 221.92C112.181 220.892 98.5814 218.928 98.5814 218.928V214.132H98.5785Z" fill="#3DC8F9"/>
<path d="M119.895 136.417L118.124 152.771C117.48 159.677 138.205 159.253 137.956 155.034L135.113 137.105L119.895 136.417Z" fill="#D99975"/>
<path d="M118.501 149.296C126.099 155.195 136.495 152.692 137.508 152.197L137.033 149.214L136.691 147.062C132.261 147.009 121.092 144.98 119.491 140.975L118.501 149.296Z" fill="#DB895F"/>
<path d="M144.095 199.403L124.318 223.246C123.332 224.435 124.178 226.239 125.724 226.239H151.754C152.934 226.239 154.049 225.714 154.802 224.807L174.578 200.964C175.565 199.775 174.719 197.972 173.173 197.972H147.143C145.966 197.969 144.847 198.496 144.095 199.403Z" fill="#E2F1F7"/>
<path d="M151.868 198.159L149.242 201.327C149.11 201.485 149.224 201.725 149.429 201.725H166.041C166.196 201.725 166.346 201.654 166.445 201.534L169.071 198.367C169.203 198.209 169.089 197.969 168.884 197.969H152.272C152.117 197.969 151.968 198.039 151.868 198.159Z" fill="#B1D1E5"/>
<path d="M130.282 209.173C130.282 209.173 136.252 206.585 138 206.752L135.611 209.63C138.664 210.171 142.011 211.348 142.614 213.916C143.161 216.237 137.496 219.736 134.955 219.487C129.703 218.972 125.188 219.806 125.469 217.104C125.586 215.977 130.282 209.173 130.282 209.173Z" fill="#A36D4F"/>
<path opacity="0.67" d="M149.529 174.679L150.115 159.613L152.58 174.295L149.529 174.679Z" fill="#3DC8F9"/>
<path d="M118.703 147.604L116.391 152.036C116.391 152.036 115.735 160.19 126.529 164.716L129.226 158.105C129.226 158.105 120.404 156.331 118.255 151.582L118.703 147.604Z" fill="white"/>
<path d="M129.223 158.105L132.642 165.053C132.642 165.053 139.906 160.19 139.719 156.328C139.531 152.467 137.037 149.214 137.037 149.214L137.511 152.197C136.358 155.549 133.714 157.619 129.223 158.105Z" fill="white"/>
<path opacity="0.25" d="M135.819 259.807L133.397 243.693L151.854 292.284L135.819 259.807Z" fill="black"/>
<path d="M193.444 135.281C193.643 135.123 194.255 132.315 194.408 131.864C194.771 130.787 197.23 127.3 198.521 127.874C199.496 128.307 197.335 131.481 197.329 131.689C197.294 132.795 198.36 132.687 198.761 132.643C202.529 132.216 207.802 129.332 209.828 129.879C212.173 130.512 210.434 134.651 207.784 136.595C206.803 137.316 201.17 141.195 197.593 140.48C196.586 140.276 191.058 137.187 193.444 135.281Z" fill="#A36D4F"/>
<path opacity="0.67" d="M109.434 169.532L103.421 200.472L130.282 209.173L106.457 198.87L109.434 169.532Z" fill="#3DC8F9"/>
<path d="M135.807 147.94C133.102 149.504 125.979 149.583 121.247 147.604C115.881 145.358 111.773 139.883 108.796 134.479C104.729 127.092 110.822 119.208 115.518 116.892C134.156 107.699 134.785 112.632 138.049 121.128C138.451 122.171 138.805 123.204 139.112 124.229C139.112 124.232 139.112 124.232 139.112 124.232C142.485 135.451 140.427 145.273 135.807 147.94Z" fill="#D99975"/>
<path d="M126.374 116.333C124.453 116.476 120.521 121.53 120.384 122.546C120.147 124.241 121.587 126.337 119.476 127.736C116.777 129.525 123.408 136.045 120.867 135.995C119.33 135.963 118.144 130.011 115.638 130.55C110.778 131.598 113.718 139.851 116.639 141.441C119.148 142.805 118.85 146.345 118.85 146.345C118.106 145.908 112.178 141.488 108.793 134.476C105.125 126.881 110.81 119.187 115.515 116.889C134.185 107.772 131.345 115.967 126.374 116.333Z" fill="#A35F42"/>
<path d="M109.358 135.565C106.647 134.414 105.063 128.489 105.994 126.782C107.54 123.948 105.248 119.527 108.19 118.936C110.974 118.376 110.682 110.876 113.688 110.814C115.665 110.773 117.951 110.999 119.16 108.607C120.668 105.626 124.047 104.057 126.93 106.364C130.075 108.879 131.337 104.309 135.596 107.822C137.956 109.772 137.821 121.026 136.776 118.836C135.084 115.302 121.622 118.11 120.381 122.545C115.196 125.745 108.138 132.201 109.358 135.565Z" fill="#1A1A1A"/>
<path d="M127.703 123.049C126.436 122.595 125.019 123.553 123.95 124.185C122.618 124.973 121.582 126.114 121.254 127.657C121.207 127.883 121.494 128.02 121.664 127.897C122.972 126.946 124.152 126.015 125.672 125.403C126.667 125.002 127.768 124.917 128.099 123.866C128.143 123.737 127.841 123.099 127.703 123.049Z" fill="#1A1A1A"/>
<path d="M135.754 120.414C134.519 120.376 132.891 120.642 132.118 121.676C131.966 121.881 131.919 122.162 132.021 122.399C132.042 122.446 132.065 122.493 132.095 122.534C132.411 123.011 133.023 122.853 133.465 122.689C134.164 122.428 134.788 122.317 135.537 122.165C136.395 121.989 138.088 122.346 138.254 121.752C138.383 121.301 136.685 120.443 135.754 120.414Z" fill="#1A1A1A"/>
<path d="M115.928 136.806C115.24 135.723 114.745 134.209 115.085 132.825C115.167 132.488 115.626 132.567 115.579 132.895C115.413 134.086 115.995 135.304 116.66 136.156C116.994 136.587 117.409 136.956 117.91 137.178C118.393 137.392 118.943 137.33 119.365 137.679C119.441 137.743 119.462 137.872 119.409 137.969C118.99 138.747 118.009 138.566 117.427 138.267C116.797 137.945 116.303 137.398 115.928 136.806Z" fill="#7C4529"/>
<path d="M136.12 139.356C135.078 139.825 134.261 140.404 133.087 140.586C131.872 140.773 130.484 140.647 129.527 139.807C129.293 139.602 129.015 139.93 129.161 140.164C130.414 142.173 134.51 142.741 136.922 140.185C137.268 139.822 136.665 139.113 136.12 139.356Z" fill="#7C4529"/>
<path d="M138.255 126.583C138.187 127.236 137.605 127.713 136.949 127.645C136.296 127.578 135.819 126.995 135.886 126.34C135.953 125.684 136.536 125.21 137.192 125.277C137.848 125.344 138.322 125.93 138.255 126.583Z" fill="#1A1A1A"/>
<path d="M129.425 129.232C129.357 129.885 128.775 130.362 128.119 130.295C127.466 130.228 126.989 129.645 127.056 128.989C127.124 128.336 127.706 127.859 128.362 127.927C129.018 127.994 129.492 128.579 129.425 129.232Z" fill="#1A1A1A"/>
<path d="M136.234 132.028C135.921 131.463 135.371 131.065 134.908 130.634C134.232 130.011 133.602 129.332 133.078 128.576C132.007 127.031 131.398 125.209 131.143 123.356C131.123 123.213 130.88 123.245 130.891 123.391C131.035 125.467 131.691 127.417 132.797 129.179C133.316 130.005 133.927 130.743 134.63 131.416C135.166 131.929 135.833 132.532 135.64 133.381C135.353 134.634 134.141 134.262 133.266 134.069C133.055 134.022 132.917 134.227 132.999 134.414C133.474 135.456 135.014 135.357 135.786 134.701C136.562 134.036 136.72 132.912 136.234 132.028Z" fill="#7C4529"/>
<path d="M211.098 229.842H166.041V228.654H167.417V223.34H166.041V222.151H211.098C213.095 222.151 214.711 223.238 214.711 224.578V227.415C214.714 228.756 213.095 229.842 211.098 229.842Z" fill="#B1D1E5"/>
<path opacity="0.4" d="M214.714 224.581V227.418C214.714 228.759 213.098 229.845 211.102 229.845H204.485C206.482 229.845 208.098 228.759 208.098 227.418V224.581C208.098 223.24 206.482 222.154 204.485 222.154H211.102C213.095 222.151 214.714 223.24 214.714 224.581Z" fill="#B1D1E5"/>
<path d="M203.505 228.654H167.816C167.509 228.654 167.26 228.405 167.26 228.098V223.896C167.26 223.589 167.509 223.34 167.816 223.34H203.505C204.933 223.34 206.09 224.497 206.09 225.925V226.066C206.09 227.497 204.933 228.654 203.505 228.654Z" fill="white"/>
<path d="M169.572 226.238C180.554 225.989 191.682 225.986 202.664 226.238C191.682 226.487 180.557 226.484 169.572 226.238Z" fill="#E6E6E6"/>
<path d="M212.673 238.16H164.097V236.878H165.582V231.148H164.097V229.866H212.676C214.828 229.866 216.573 231.037 216.573 232.483V235.54C216.57 236.989 214.825 238.16 212.673 238.16Z" fill="#B1D1E5"/>
<path opacity="0.4" d="M216.57 232.486V235.543C216.57 236.989 214.825 238.16 212.674 238.16H205.928C208.08 238.16 209.825 236.989 209.825 235.543V232.486C209.825 231.04 208.08 229.869 205.928 229.869H212.674C214.825 229.869 216.57 231.04 216.57 232.486Z" fill="#B1D1E5"/>
<path d="M205.102 236.878H165.578V231.148H205.099C206.393 231.148 207.441 232.196 207.441 233.49V234.536C207.441 235.83 206.393 236.878 205.102 236.878Z" fill="white"/>
<path d="M168.073 234.272C179.913 234.002 191.911 234.002 203.75 234.272C191.911 234.541 179.916 234.538 168.073 234.272Z" fill="#E6E6E6"/>
<path d="M78.7287 49.5291H116.835C118.984 49.5291 120.723 51.271 120.723 53.417V71.4984C120.723 73.6474 118.981 75.3864 116.835 75.3864H110.128L115.597 83.9148L102.952 75.3864H78.7287C76.5798 75.3864 74.8407 73.6444 74.8407 71.4984V53.417C74.8407 51.271 76.5827 49.5291 78.7287 49.5291Z" fill="#F37856"/>
<path d="M87.0667 62.9726C87.0667 64.4189 85.8927 65.5929 84.4465 65.5929C83.0002 65.5929 81.8262 64.4189 81.8262 62.9726C81.8262 61.5263 83.0002 60.3523 84.4465 60.3523C85.8957 60.3552 87.0667 61.5263 87.0667 62.9726Z" fill="white"/>
<path d="M95.6534 63.5801C95.9871 62.172 95.1161 60.76 93.7081 60.4263C92.3 60.0926 90.888 60.9636 90.5543 62.3716C90.2206 63.7797 91.0915 65.1917 92.4996 65.5254C93.9077 65.8591 95.3197 64.9882 95.6534 63.5801Z" fill="white"/>
<path d="M104.32 63.5815C104.653 62.1735 103.783 60.7615 102.374 60.4278C100.966 60.0941 99.5544 60.965 99.2207 62.3731C98.887 63.7811 99.7579 65.1931 101.166 65.5268C102.574 65.8606 103.986 64.9896 104.32 63.5815Z" fill="white"/>
<path d="M112.3 64.8257C113.323 63.8024 113.323 62.1434 112.3 61.1201C111.277 60.0968 109.618 60.0968 108.595 61.1201C107.571 62.1434 107.571 63.8024 108.595 64.8257C109.618 65.849 111.277 65.849 112.3 64.8257Z" fill="white"/>
<path d="M556.147 158.433H523.846C522.025 158.433 520.549 159.909 520.549 161.73V177.056C520.549 178.877 522.025 180.353 523.846 180.353H529.531L524.897 187.581L535.615 180.353H556.147C557.968 180.353 559.443 178.877 559.443 177.056V161.727C559.443 159.909 557.968 158.433 556.147 158.433Z" fill="#F37856"/>
<path d="M549.079 169.828C549.079 171.055 550.075 172.047 551.298 172.047C552.525 172.047 553.518 171.052 553.518 169.828C553.518 168.601 552.522 167.609 551.298 167.609C550.075 167.609 549.079 168.604 549.079 169.828Z" fill="white"/>
<path d="M541.734 169.828C541.734 171.055 542.729 172.047 543.953 172.047C545.18 172.047 546.172 171.052 546.172 169.828C546.172 168.601 545.177 167.609 543.953 167.609C542.726 167.609 541.734 168.604 541.734 169.828Z" fill="white"/>
<path d="M534.385 169.828C534.385 171.055 535.38 172.047 536.604 172.047C537.831 172.047 538.823 171.052 538.823 169.828C538.823 168.601 537.828 167.609 536.604 167.609C535.38 167.609 534.385 168.604 534.385 169.828Z" fill="white"/>
<path d="M527.04 169.828C527.04 171.055 528.035 172.047 529.259 172.047C530.485 172.047 531.478 171.052 531.478 169.828C531.478 168.601 530.482 167.609 529.259 167.609C528.032 167.609 527.04 168.604 527.04 169.828Z" fill="white"/>
<path d="M55.7143 292.257C58.6332 290.144 61.0252 287.277 60.6563 286.109C60.4572 285.767 58.2702 282.095 57.1635 280.415C57.1518 280.552 57.1372 280.69 57.1167 280.828C56.862 282.511 55.3015 284.742 52.248 286.062C51.3843 286.434 51.4955 286.177 52.5817 285.491C56.4375 283.053 56.6395 280.55 56.5429 279.487C56.0803 278.805 55.6002 278.114 55.0966 277.423C53.8699 279.873 50.6348 282.552 48.7728 282.133C48.6118 282.098 47.9296 281.826 48.4566 281.601C51.6126 280.26 54.0456 277.631 53.2639 274.99C51.9991 273.491 50.1195 271.348 48.6762 270.071C48.6469 270.789 48.4742 271.488 48.1873 272.165C47.7569 273.183 47.0425 274.027 46.1262 274.744C45.93 274.899 45.769 274.826 45.9037 274.615C46.8961 273.06 48.0643 271.395 48.0087 269.5C47.713 269.249 47.4143 269.003 47.1128 268.763C47.2738 269.679 47.1069 270.592 46.7907 271.477C46.0383 272.926 45.0195 273.965 44.9902 273.983C44.3578 274.343 44.1031 274.27 44.4281 273.675C45.3474 271.995 45.4235 270.323 45.4879 269.418C45.5465 268.628 45.3562 267.94 45.0517 267.287C44.1002 266.678 40.1478 265.241 38.8157 264.889C38.9738 265.308 38.3239 267.217 37.4075 268.069C37.0328 268.414 37.144 267.84 37.3665 267.381C38.0165 266.046 38.0692 264.825 37.9813 264.67C35.7739 263.745 31.5902 264.599 31.3267 264.828C30.3986 265.63 32.0879 265.563 30.7704 273.058C30.6445 273.781 31.2916 276.861 31.5931 277.593C31.7659 277.877 33.502 278.415 34.7784 278.699C36.09 278.992 37.5802 278.974 39.0324 278.647C39.3691 278.57 39.6472 279.215 39.3954 279.455C38.441 280.362 36.6727 280.511 35.3464 280.456C34.3744 280.415 33.3527 280.257 32.4041 279.929C32.6032 280.447 32.8052 280.971 33.0072 281.498C33.3058 281.806 33.6513 282.066 34.0377 282.253C35.9378 283.179 38.482 282.467 40.2825 281.7C40.5138 281.601 40.3615 281.785 40.1566 281.926C39.6413 282.28 39.0207 282.526 38.4029 282.716C37.3607 283.035 36.2481 283.24 35.1561 283.085C34.4857 282.988 33.8796 282.731 33.3527 282.353C34.1373 284.417 36.2511 287.061 37.065 289.101C37.9784 289.526 38.9416 290.384 43.8191 288.999C45.6958 288.466 46.4365 288.624 44.3491 289.807C43.0579 290.536 38.0809 291.306 38.0516 291.3C38.3707 292.032 38.6928 292.743 39.0148 293.425C39.3808 293.991 39.8843 294.462 40.5079 294.652C41.7141 295.021 45.0458 294.573 45.6782 294.31C46.3633 294.026 46.5243 294.424 45.7924 294.72C41.9132 296.28 40.142 295.551 40.0717 295.513C40.3264 295.999 41.7522 298.373 42.4314 299.468C42.9321 299.767 42.9174 301.254 46.1554 301.134C49.8473 300.996 51.0183 299.295 50.8837 299.966C50.544 301.652 48.6323 303.526 44.5803 302.835C45.5114 304.252 45.4235 305.994 46.4131 307.379C47.7042 308.228 52.6315 306.858 52.9301 305.163C53.0384 304.539 53.463 304.551 53.3546 305.171C52.9945 307.221 48.0028 309.384 46.9049 309.045C48.3102 313.19 50.0668 314.716 50.4328 314.982C50.9422 314.803 52.4119 314.238 52.9711 313.852C53.5508 313.451 54.8155 312.634 55.2635 312.218C56.3087 311.246 55.1522 312.968 53.9929 313.94C53.1409 314.654 52.2421 315.169 51.2262 315.538C57.4329 319.456 66.9332 315.181 67.8496 307.379C68.0253 305.874 68.0926 305.186 67.2933 302.894C65.8617 305.83 62.8052 305.903 61.4585 305.725C59.8395 305.508 59.9331 305.28 61.5317 304.949C63.8855 304.463 66.3301 303.948 66.9537 301.57C66.8981 301.032 66.4853 298.625 65.97 297.281C65.9027 297.109 63.4581 300.332 59.5203 300.42C59.3037 300.426 63.4025 299.29 65.8295 296.344C65.8295 296.344 65.4313 294.995 65.3142 294.752C65.2967 294.731 65.282 294.711 65.2645 294.69C65.2586 294.681 65.2557 294.673 65.2498 294.664C64.5647 297.073 62.2343 298.291 59.8804 299.032C58.9612 299.322 59.2188 298.786 60.1352 298.496C62.5915 297.723 64.6526 294.819 64.1197 292.377C63.7391 290.635 62.4568 289.265 61.6663 287.869C60.9315 290.334 59.0138 291.528 55.6587 292.907C55.0732 293.15 55.202 292.626 55.7143 292.257Z" fill="#F37856"/>
<path d="M42.3115 277.104C37.9376 270.715 36.2863 269.178 32.4657 266.022C32.0412 265.671 31.564 265.381 31.1131 265.059C31.0575 265.018 31.0165 265.085 31.0751 265.132C34.9425 268.165 38.1601 271.916 40.956 275.941C42.3671 277.973 47.3413 286.601 48.4948 288.826C50.9101 293.487 53.3928 298.101 55.4071 302.955C57.3335 307.595 58.9144 312.379 60.229 317.225C61.5406 322.049 62.4482 326.962 63.4084 331.866C63.5285 332.475 63.6836 333.078 63.8212 333.684C63.8564 333.839 64.0906 333.795 64.0906 333.643C64.0994 328.602 63.0805 323.592 61.8304 318.724C60.5657 313.799 58.9086 309.001 56.9119 304.325C54.842 299.48 52.5643 294.804 50.0289 290.187C47.5989 285.77 45.166 281.273 42.3115 277.104Z" fill="#F8B19D"/>
<path d="M76.1324 287.283C79.6047 286.32 82.8456 284.467 82.9071 283.243C82.8397 282.854 82.0698 278.65 81.6218 276.688C81.5633 276.814 81.5018 276.937 81.4345 277.057C80.6089 278.544 78.3692 280.093 75.0462 280.266C74.1094 280.313 74.2997 280.111 75.5557 279.847C80.0204 278.904 81.0831 276.63 81.3613 275.602C81.1651 274.8 80.9543 273.986 80.726 273.163C78.7205 275.034 74.7564 276.416 73.1579 275.374C73.0203 275.283 72.4757 274.791 73.0466 274.765C76.472 274.609 79.6691 272.993 79.8564 270.244C79.1919 268.4 78.1789 265.733 77.2713 264.035C76.9961 264.696 76.5862 265.294 76.0827 265.826C75.3244 266.632 74.3582 267.173 73.2516 267.524C73.0144 267.601 72.8856 267.478 73.0876 267.325C74.5603 266.216 76.2349 265.059 76.8439 263.268C76.6565 262.928 76.4603 262.594 76.2612 262.266C76.0914 263.183 75.6171 263.979 75.014 264.696C73.8049 265.791 72.4845 266.412 72.4523 266.418C71.735 266.535 71.5213 266.377 72.0337 265.935C73.4799 264.682 74.1357 263.139 74.5105 262.316C74.8413 261.596 74.9028 260.884 74.8442 260.164C74.165 259.263 70.9621 256.534 69.835 255.743C69.8379 256.191 68.5643 257.755 67.405 258.232C66.9336 258.425 67.2381 257.928 67.607 257.573C68.6815 256.549 69.1557 255.421 69.1294 255.246C67.3816 253.609 63.1628 252.953 62.8378 253.073C61.6872 253.501 63.2945 254.025 59.4475 260.592C59.0757 261.224 58.6073 264.339 58.6366 265.13C58.698 265.458 60.1385 266.567 61.2363 267.279C62.3635 268.01 63.7659 268.511 65.2414 268.71C65.584 268.757 65.622 269.457 65.3 269.594C64.0908 270.113 62.3811 269.635 61.1544 269.123C60.2585 268.748 59.3538 268.239 58.5809 267.604C58.5897 268.157 58.5926 268.719 58.5985 269.284C58.7712 269.676 59.0025 270.039 59.3011 270.353C60.7591 271.881 63.394 272.1 65.3468 272.01C65.5957 271.998 65.3907 272.118 65.1507 272.177C64.5417 272.329 63.8771 272.343 63.233 272.305C62.1439 272.241 61.0314 272.048 60.0623 271.521C59.468 271.196 58.9879 270.745 58.6278 270.206C58.6424 272.414 59.7022 275.631 59.7549 277.824C60.4634 278.541 61.0665 279.68 66.1227 280.081C68.0666 280.236 68.7078 280.643 66.3393 281.021C64.8755 281.255 59.9423 280.239 59.916 280.225C59.9599 281.024 60.0126 281.8 60.0799 282.552C60.2263 283.211 60.5337 283.826 61.0519 284.221C62.0532 284.988 65.3322 285.729 66.0143 285.702C66.755 285.676 66.7667 286.106 65.9792 286.127C61.7985 286.238 60.3932 284.935 60.3405 284.877C60.4107 285.421 60.9172 288.144 61.1749 289.406C61.5408 289.86 61.008 291.25 64.085 292.266C67.5924 293.423 69.2846 292.24 68.9245 292.82C68.0198 294.281 65.5722 295.373 62.018 293.312C62.3957 294.966 61.7048 296.564 62.1498 298.21C63.0662 299.454 68.1603 299.89 69.0299 298.406C69.349 297.858 69.7413 298.019 69.4251 298.561C68.374 300.356 62.9403 300.642 62.0297 299.943C61.9009 304.32 63.0164 306.36 63.2652 306.735C63.8069 306.744 65.379 306.726 66.0407 306.559C66.7228 306.387 68.1955 306.062 68.7576 305.827C70.075 305.28 68.3916 306.492 66.9658 306.998C65.9177 307.37 64.896 307.54 63.8127 307.531C68.2628 313.366 78.659 312.672 82.2366 305.681C82.9276 304.331 83.2291 303.711 83.2789 301.284C80.9133 303.535 78.0237 302.54 76.8234 301.901C75.38 301.134 75.5498 300.953 77.16 301.199C79.5373 301.565 82.0054 301.934 83.4224 299.922C83.557 299.398 84.0108 296.997 83.9962 295.56C83.9933 295.376 80.5796 297.545 76.8556 296.254C76.6506 296.184 80.887 296.55 84.1894 294.635C84.1894 294.635 84.286 293.233 84.2597 292.96C84.2509 292.937 84.2421 292.91 84.2333 292.887C84.2304 292.875 84.2304 292.867 84.2304 292.855C82.7461 294.875 80.1404 295.203 77.6753 295.077C76.7121 295.027 77.1395 294.617 78.0998 294.664C80.6703 294.796 83.6156 292.793 83.9669 290.317C84.2187 288.551 83.4956 286.821 83.2408 285.234C81.6921 287.286 79.4788 287.74 75.8543 287.863C75.2219 287.895 75.5264 287.45 76.1324 287.283Z" fill="#F37856"/>
<path d="M68.8541 268.409C66.9804 260.896 65.9703 258.879 63.4905 254.59C63.2153 254.113 62.867 253.677 62.5595 253.217C62.5215 253.161 62.46 253.208 62.4981 253.272C65.0656 257.465 66.7725 262.099 67.9904 266.848C68.6052 269.246 70.2594 279.065 70.5638 281.551C71.2021 286.762 71.9194 291.953 72.1155 297.205C72.3029 302.223 72.1184 307.262 71.6617 312.262C71.2079 317.242 70.3472 322.164 69.5392 327.094C69.4396 327.706 69.3752 328.327 69.2903 328.941C69.2698 329.1 69.504 329.138 69.5567 328.997C71.3221 324.275 72.1155 319.224 72.6396 314.227C73.1724 309.171 73.2924 304.094 73.0494 299.018C72.8006 293.754 72.2941 288.577 71.5271 283.369C70.7893 278.374 70.0778 273.312 68.8541 268.409Z" fill="#F8B19D"/>
<path d="M83.2729 294.974C80.7638 293.519 78.6442 291.344 78.8813 290.287C79.0248 289.968 80.6057 286.519 81.4167 284.926C81.4343 285.044 81.4548 285.161 81.4782 285.278C81.7827 286.698 83.185 288.431 85.7585 289.183C86.4845 289.397 86.3821 289.186 85.454 288.732C82.1603 287.113 81.8529 284.976 81.8705 284.045C82.2101 283.398 82.5644 282.74 82.9362 282.081C84.0809 284.042 86.8768 285.948 88.3787 285.351C88.5076 285.298 89.0521 284.979 88.6071 284.85C85.9458 284.092 83.8086 282.128 84.2975 279.747C85.249 278.292 86.666 276.202 87.7727 274.917C87.8371 275.532 88.0186 276.117 88.2909 276.665C88.7008 277.49 89.3361 278.128 90.1237 278.632C90.2935 278.74 90.4223 278.658 90.2993 278.491C89.3976 277.274 88.3495 275.982 88.288 274.34C88.5163 274.085 88.7447 273.833 88.9789 273.59C88.8999 274.401 89.0873 275.171 89.3976 275.895C90.0944 277.051 90.9902 277.821 91.0137 277.833C91.5524 278.064 91.7544 277.967 91.4557 277.496C90.6096 276.161 90.4516 274.726 90.3462 273.954C90.2525 273.277 90.3696 272.659 90.5833 272.056C91.3269 271.412 94.483 269.667 95.5516 269.196C95.4462 269.577 96.0844 271.143 96.8866 271.764C97.2116 272.015 97.0886 271.535 96.8808 271.166C96.2718 270.095 96.1606 269.047 96.222 268.9C97.9757 267.823 101.448 268.034 101.676 268.195C102.481 268.772 101.097 268.924 102.599 275.233C102.742 275.842 102.388 278.585 102.183 279.256C102.057 279.522 100.666 280.207 99.6386 280.614C98.5817 281.033 97.3609 281.205 96.1547 281.106C95.8736 281.082 95.6833 281.674 95.9029 281.849C96.7344 282.511 98.1924 282.417 99.2756 282.204C100.069 282.046 100.898 281.779 101.653 281.378C101.518 281.849 101.384 282.33 101.249 282.81C101.021 283.111 100.754 283.381 100.447 283.594C98.9448 284.634 96.8222 284.341 95.3057 283.905C95.1124 283.849 95.2442 283.99 95.4198 284.083C95.8619 284.323 96.3831 284.458 96.9013 284.543C97.7737 284.686 98.6959 284.724 99.5801 284.452C100.125 284.285 100.605 283.987 101.015 283.591C100.491 285.474 98.9096 288.024 98.3592 289.889C97.6361 290.372 96.8954 291.236 92.823 290.653C91.2567 290.431 90.6594 290.662 92.4336 291.417C93.5315 291.886 97.6507 291.918 97.6742 291.912C97.4546 292.585 97.2321 293.241 97.0067 293.871C96.7373 294.406 96.3538 294.875 95.8561 295.118C94.8899 295.589 92.1379 295.621 91.6051 295.478C91.0283 295.32 90.92 295.686 91.5348 295.847C94.7992 296.705 96.2074 295.85 96.263 295.809C96.0815 296.263 95.048 298.493 94.5562 299.524C94.1639 299.846 94.2605 301.128 91.6021 301.433C88.572 301.781 87.518 300.461 87.6673 301.02C88.0391 302.434 89.7108 303.81 92.9899 302.703C92.3077 304.044 92.4804 305.537 91.7485 306.861C90.7385 307.757 86.628 307.197 86.2884 305.772C86.1625 305.248 85.817 305.312 85.9429 305.833C86.3528 307.558 90.5628 308.796 91.4411 308.366C90.5247 312.125 89.1751 313.665 88.8911 313.94C88.4636 313.849 87.2282 313.548 86.748 313.284C86.2503 313.012 85.17 312.464 84.7806 312.163C83.8701 311.454 84.9153 312.798 85.9195 313.489C86.6573 313.998 87.4243 314.329 88.2763 314.52C83.4192 318.689 75.4003 316.197 74.2058 309.575C73.9745 308.295 73.8808 307.713 74.4078 305.628C75.7458 307.985 78.2519 307.66 79.3439 307.335C80.6555 306.943 80.5677 306.758 79.2414 306.673C77.2857 306.55 75.2569 306.416 74.6098 304.44C74.6245 303.968 74.8265 301.837 75.1719 300.61C75.2159 300.452 77.3999 302.929 80.6292 302.507C80.8078 302.484 77.3882 302.024 75.2334 299.785C75.2334 299.785 75.4823 298.57 75.5643 298.344C75.576 298.324 75.5877 298.306 75.6023 298.286C75.6052 298.277 75.6082 298.268 75.614 298.259C76.3108 300.256 78.287 301.011 80.2573 301.354C81.0244 301.488 80.7873 301.058 80.0173 300.923C77.962 300.566 76.1117 298.318 76.4104 296.142C76.6241 294.591 77.5932 293.244 78.1641 291.938C78.9048 293.973 80.5443 294.766 83.3665 295.533C83.8467 295.665 83.712 295.229 83.2729 294.974Z" fill="#F37856"/>
<path d="M93.382 280.192C96.5996 274.12 97.8643 272.583 100.813 269.378C101.14 269.02 101.515 268.71 101.864 268.376C101.907 268.335 101.946 268.388 101.899 268.435C98.9066 271.544 96.4854 275.189 94.4243 279.021C93.385 280.957 89.8015 289.037 88.9847 291.104C87.272 295.437 85.5007 299.738 84.1276 304.185C82.816 308.436 81.7913 312.769 80.9891 317.122C80.1899 321.455 79.7244 325.815 79.215 330.171C79.1506 330.713 79.0598 331.251 78.9807 331.793C78.9603 331.931 78.767 331.922 78.7582 331.79C78.4655 327.437 79.0159 322.981 79.7624 318.618C80.5178 314.203 81.601 309.85 82.9712 305.558C84.3911 301.111 85.9896 296.784 87.8048 292.477C89.5468 288.343 91.2829 284.154 93.382 280.192Z" fill="#F8B19D"/>
<path d="M86.1126 370.579H56.417L52.1807 335.005H90.3489L86.1126 370.579Z" fill="#F37856"/>
<path d="M91.6989 335.004H50.8313C48.9634 335.004 47.4498 333.491 47.4498 331.623C47.4498 329.755 48.9634 328.241 50.8313 328.241H91.6989C93.5668 328.241 95.0804 329.755 95.0804 331.623C95.0804 333.491 93.5668 335.004 91.6989 335.004Z" fill="#F37856"/>
<path opacity="0.4" d="M52.1807 335.005L84.4965 338.843L83.2083 370.579H86.1126L90.3489 335.005H52.1807Z" fill="#FEF2EE"/>
<path d="M311.89 189.835C311.89 189.835 288.954 171.599 287.227 168.835C287.083 168.607 287.458 165.562 287.464 165.053C287.478 163.841 285.587 158.954 284.085 159.077C282.949 159.168 284.996 163.542 284.928 163.753C284.571 164.88 284.536 165.24 284.15 165.053C280.508 163.29 275.779 158.743 273.546 158.577C270.96 158.386 271.247 163.17 273.229 166.063C273.964 167.134 278.084 173.446 281.939 173.991C283.023 174.143 298.899 193.252 305.206 197.977C309.026 200.841 327.389 209.369 327.389 209.369L338.933 200.015L311.89 189.835Z" fill="#F7CFB5"/>
<path d="M347.827 172.261C345.742 180.821 327.193 187.558 322.359 182.648C320.33 180.587 318.893 173.78 320.69 165.463C323.735 151.377 330.732 151.489 338.464 153.371C346.196 155.254 349.911 163.7 347.827 172.261Z" fill="#F7CFB5"/>
<path d="M336.579 200.519C334.299 200.519 329.734 195.571 330.747 191.015L327.395 180.145L342.209 176.995L346.612 190.415C348.126 192.696 338.497 200.519 336.579 200.519Z" fill="#F7CFB5"/>
<path d="M307.712 209.677L297.319 216.952L273.853 229.954C273.853 229.954 255.564 231.543 257.353 236.699C258.108 238.871 273.072 237.569 274.761 236.96C278.634 235.563 292.383 230.308 303.101 226.069L317.567 218.24C310.956 219.417 307.712 209.677 307.712 209.677Z" fill="#F7CFB5"/>
<path d="M366.658 260.118C366.658 260.118 367.99 278.981 358.896 282.869C349.803 286.76 301.326 282.869 301.326 282.869L281.386 347.319C281.386 347.319 268.001 344.005 267.515 342.965C267.029 341.926 277.817 287.409 277.817 287.409L263.48 314.628L250.595 309.651C250.595 309.651 272.047 248.787 281.061 245.011C292.233 240.332 330.463 253.03 330.463 253.03L366.658 260.118Z" fill="#FFB000"/>
<path opacity="0.74" d="M277.82 287.412L289.358 263.654L333.944 256.745L292.02 269.07L274.764 303.096L277.82 287.412Z" fill="#FFB000"/>
<path d="M300.899 213.093C300.899 213.093 306.833 223.068 308.763 224.113C309.796 224.672 321.946 216.952 321.946 216.952L331.066 241.571L330.466 253.032C329.479 258.004 364.079 269.802 367.806 258.068C373.146 241.26 366.728 202.14 357.342 195.126C353.152 191.996 346.612 190.415 346.612 190.415L330.75 191.015C327.392 191.097 300.899 213.093 300.899 213.093Z" fill="#66C5CE"/>
<path d="M268.019 343.34L265.981 357.159L253.969 361.767C251.018 369.795 268.944 370.234 276.907 359.305L280.526 347.064L268.019 343.34Z" fill="#F7CFB5"/>
<path d="M351.39 167.327C350.55 174.869 348.176 180.385 344.484 182.226C340.578 184.173 333.985 184.457 331.421 183.111C329.974 182.349 327.392 178.579 328.481 175.446C328.882 174.292 329.781 173.262 330.056 170.703C330.85 163.258 325.185 164.531 325.185 164.531C323.49 161.891 323.478 157.458 324.245 155.374C325.012 153.286 327.937 149.717 334.184 150.891C336.998 151.418 340.88 152.411 345.459 154.812C348.199 156.246 350.427 158.433 351.15 161.859C351.54 163.688 351.592 165.53 351.39 167.327Z" fill="#1D3051"/>
<path d="M351.39 167.327C351.015 167.389 350.629 167.421 350.237 167.421C346.255 167.421 343.029 164.192 343.029 160.21C343.029 158.061 343.971 156.132 345.462 154.812C348.202 156.246 350.43 158.433 351.153 161.858C351.539 163.688 351.592 165.53 351.39 167.327Z" fill="white"/>
<path d="M350.237 166.458C353.689 166.458 356.487 163.659 356.487 160.207C356.487 156.755 353.689 153.957 350.237 153.957C346.784 153.957 343.986 156.755 343.986 160.207C343.986 163.659 346.784 166.458 350.237 166.458Z" fill="#1D3051"/>
<path opacity="0.74" d="M301.33 282.869L292.236 282.169L300.299 286.197L301.33 282.869Z" fill="#FFB000"/>
<path d="M321.944 216.952L330.738 211.884L325.673 218.413L328.18 233.783L321.944 216.952Z" fill="#66C5CE"/>
<path d="M328.633 184.308L326.502 177.393L327.084 184.308H328.633Z" fill="#F7CFB5"/>
<path d="M276.904 359.304C280.464 371.235 277 370.667 277 370.667C277 370.667 262.912 370.719 252.943 370.667C248.101 370.64 242.729 370.752 242.705 368.073C242.679 364.996 254.305 361.046 253.968 361.767C251.084 367.932 271.769 363.895 276.904 359.304Z" fill="#ADBAE7"/>
<path d="M251.369 309.95L241.827 329.144L232.435 339.713C232.468 348.264 249.422 342.427 253.076 329.41L262.816 314.461L251.369 309.95Z" fill="#F7CFB5"/>
<path d="M253.079 329.407C256.671 334.73 256.642 337.622 254.701 339.25C250.224 343.003 243.944 344.982 234.581 348.408C230.032 350.074 225.037 352.05 224.08 349.544C222.982 346.672 232.503 338.916 232.438 339.707C231.882 346.493 249.864 335.5 253.079 329.407Z" fill="#ADBAE7"/>
<path d="M63.3087 122.856V117.676L58.7737 116.725C58.4838 115.677 58.0652 114.684 57.5411 113.759L60.0794 109.877L56.4169 106.215L52.5289 108.753C51.6067 108.232 50.6142 107.816 49.569 107.526L48.6146 102.979H43.4355L42.4811 107.526C41.4359 107.816 40.4434 108.229 39.5212 108.753L35.6332 106.215L31.9707 109.877L34.5061 113.759C33.982 114.684 33.5663 115.68 33.2735 116.725L28.7385 117.676V122.856L33.2677 123.804C33.5575 124.855 33.9732 125.854 34.5002 126.785L31.9707 130.655L35.6332 134.317L39.5007 131.791C40.4317 132.321 41.433 132.739 42.487 133.029L43.4355 137.547H48.6146L49.5632 133.029C50.6171 132.737 51.6184 132.318 52.5494 131.791L56.4169 134.317L60.0794 130.655L57.5499 126.785C58.0769 125.856 58.4926 124.855 58.7825 123.804L63.3087 122.856ZM51.0534 120.279C51.0534 123.058 48.802 125.309 46.0236 125.309C43.2452 125.309 40.9938 123.058 40.9938 120.279C40.9938 117.501 43.2452 115.249 46.0236 115.249C48.802 115.249 51.0534 117.501 51.0534 120.279Z" fill="#F37856"/>
<path d="M79.5512 148.602L80.6842 145.229L77.938 143.619C77.9761 142.872 77.9234 142.135 77.7828 141.417L80.2831 139.444L78.6992 136.259L75.6134 137.064C75.1274 136.522 74.5712 136.036 73.9534 135.621L74.3252 132.453L70.9525 131.32L69.3394 134.072C68.5957 134.031 67.8609 134.084 67.1436 134.224L65.1674 131.721L61.9821 133.305L62.7843 136.388C62.2397 136.877 61.7508 137.433 61.3351 138.051L58.1732 137.679L57.0402 141.051L59.7805 142.659C59.7395 143.408 59.7922 144.149 59.9327 144.869L57.4413 146.837L59.0251 150.022L62.0963 149.223C62.5881 149.77 63.1473 150.262 63.7709 150.681L63.402 153.831L66.7747 154.964L68.3791 152.229C69.1286 152.27 69.8722 152.215 70.5954 152.074L72.5598 154.563L75.7452 152.979L74.943 149.905C75.4875 149.416 75.9764 148.854 76.3951 148.233L79.5512 148.602ZM72.1353 144.246C71.5293 146.055 69.5707 147.027 67.7614 146.421C65.952 145.815 64.9801 143.856 65.5861 142.047C66.1921 140.238 68.1507 139.266 69.96 139.872C71.7694 140.481 72.7414 142.439 72.1353 144.246Z" fill="#F37856"/>
<path d="M527.04 133.565C537.437 133.565 545.865 125.137 545.865 114.74C545.865 104.343 537.437 95.915 527.04 95.915C516.643 95.915 508.215 104.343 508.215 114.74C508.215 125.137 516.643 133.565 527.04 133.565Z" fill="#F37856"/>
<path d="M527.04 129.847C535.383 129.847 542.146 123.083 542.146 114.74C542.146 106.397 535.383 99.6333 527.04 99.6333C518.696 99.6333 511.933 106.397 511.933 114.74C511.933 123.083 518.696 129.847 527.04 129.847Z" fill="white"/>
<path d="M527.022 117.1C526.299 117.1 525.731 116.479 525.795 115.759L527.022 101.882L528.249 115.759C528.316 116.479 527.748 117.1 527.022 117.1Z" fill="#F37856"/>
<path d="M526.114 116.658C525.626 116.122 525.702 115.285 526.278 114.848L533.431 109.986L527.933 116.664C527.441 117.194 526.6 117.194 526.114 116.658Z" fill="#F37856"/>
</svg>
